# xmcd
#
# Track frame offsets: 
#        150
#        14162
#        36373
#        55500
#        67770
#        80134
#        94963
#        105168
#        118518
#        142527
#
# Disc length: 2039 seconds
#
# Revision: 0
# Processed by: cddbd v1.5.2PL0 Copyright (c) Steve Scherf et al.
# Submitted via: ExactAudioCopy v1.0b4
#
DISCID=7707f50a
DTITLE=Leslie West - The Great Fatsby
DYEAR=1975
DGENRE=Blues Rock
TTITLE0=Dont Burn Me
TTITLE1=House Of The Rising Sun
TTITLE2=High Roller
TTITLE3=I`am Gonna Love You Thru The Night
TTITLE4=E.S.P.
TTITLE5=Honky Tonk Women
TTITLE6=If I Still Had You
TTITLE7=Doctor Love
TTITLE8=If I Where A Carpenter
TTITLE9=We Gotta Get Out Of This Place
EXTD=
EXTT0=
EXTT1=
EXTT2=
EXTT3=
EXTT4=
EXTT5=
EXTT6=
EXTT7=
EXTT8=
EXTT9=
PLAYORDER=
